<svg width="44" height="44" viewBox="0 0 44 44" fill="none" xmlns="http://www.w3.org/2000/svg">
<rect width="44" height="44" rx="22" fill="#E3ECF5"/>
<path d="M16 31V29C16 27.9391 16.4214 26.9217 17.1716 26.1716C17.9217 25.4214 18.9391 25 20 25H23.5M18 17C18 18.0609 18.4214 19.0783 19.1716 19.8284C19.9217 20.5786 20.9391 21 22 21C23.0609 21 24.0783 20.5786 24.8284 19.8284C25.5786 19.0783 26 18.0609 26 17C26 15.9391 25.5786 14.9217 24.8284 14.1716C24.0783 13.4214 23.0609 13 22 13C20.9391 13 19.9217 13.4214 19.1716 14.1716C18.4214 14.9217 18 15.9391 18 17ZM28.42 25.61C28.615 25.415 28.8465 25.2603 29.1013 25.1547C29.3561 25.0492 29.6292 24.9949 29.905 24.9949C30.1808 24.9949 30.4539 25.0492 30.7087 25.1547C30.9635 25.2603 31.195 25.415 31.39 25.61C31.585 25.805 31.7397 26.0365 31.8452 26.2913C31.9508 26.5461 32.0051 26.8192 32.0051 27.095C32.0051 27.3708 31.9508 27.6439 31.8452 27.8987C31.7397 28.1535 31.585 28.385 31.39 28.58L28 32H25V29L28.42 25.61Z" stroke="#007BFF" stroke-width="2" stroke-linecap="round" stroke-linejoin="round"/>
</svg>
